<svg width="26" height="24" viewBox="0 0 26 24" fill="none" xmlns="http://www.w3.org/2000/svg">
<path d="M1.53139 3.85529C2.05236 2.90017 2.7839 2.14565 3.71886 1.60107C4.66309 1.03127 5.74009 0.753906 6.93166 0.753906C8.14073 0.753906 9.22806 1.03031 10.1739 1.60107C11.1089 2.14566 11.8404 2.90017 12.3614 3.85529C12.8837 4.81287 13.1393 5.88226 13.1393 7.05002V22.9219H9.18067V6.66695C9.18067 6.23421 9.0778 5.85577 8.87827 5.51803C8.6726 5.17006 8.39906 4.89653 8.05113 4.6909C7.70986 4.48927 7.34053 4.38847 6.93166 4.38847C6.52481 4.38847 6.15714 4.48826 5.81734 4.68787C5.49235 4.89016 5.22723 5.16103 5.01967 5.50939C4.83702 5.84773 4.74157 6.22959 4.74157 6.66695V22.8931H0.753418V7.05002C0.753418 5.88226 1.00907 4.81287 1.53139 3.85529ZM1.53139 3.85529L2.03106 4.12783" stroke="url(#paint0_linear_2008_198)" stroke-width="1.15942"/>
<path d="M24.6078 3.85529C24.0868 2.90017 23.3553 2.14565 22.4203 1.60107C21.4761 1.03127 20.3991 0.753906 19.2075 0.753906C17.9984 0.753906 16.9111 1.03031 15.9652 1.60107C15.0303 2.14566 14.2988 2.90017 13.7778 3.85529C13.2554 4.81287 12.9998 5.88226 12.9998 7.05002V22.9219H16.9585V6.66695C16.9585 6.23421 17.0614 5.85577 17.2609 5.51803C17.4666 5.17006 17.7401 4.89653 18.088 4.6909C18.4293 4.48927 18.7986 4.38847 19.2075 4.38847C19.6143 4.38847 19.982 4.48826 20.3218 4.68787C20.6468 4.89016 20.9119 5.16103 21.1195 5.50939C21.3021 5.84773 21.3976 6.22959 21.3976 6.66695V22.8931H25.3857V7.05002C25.3857 5.88226 25.1301 4.81287 24.6078 3.85529ZM24.6078 3.85529L24.1081 4.12783" stroke="url(#paint1_linear_2008_198)" stroke-width="1.15942"/>
<defs>
<linearGradient id="paint0_linear_2008_198" x1="22.7608" y1="0.213444" x2="0.0474639" y2="24.1545" gradientUnits="userSpaceOnUse">
<stop stop-color="#00E8FF"/>
<stop offset="1" stop-color="#57A7B3"/>
</linearGradient>
<linearGradient id="paint1_linear_2008_198" x1="3.37836" y1="0.213444" x2="26.0917" y2="24.1545" gradientUnits="userSpaceOnUse">
<stop stop-color="#00E8FF"/>
<stop offset="1" stop-color="#57A7B3"/>
</linearGradient>
</defs>
</svg>
